<?xml version="1.0" encoding="UTF-8"?>
<!DOCTYPE svg PUBLIC "-//W3C//DTD SVG 1.1//EN" "http://www.w3.org/Graphics/SVG/1.1/DTD/svg11.dtd">
<svg xmlns="http://www.w3.org/2000/svg" version="1.1" width="1570px" height="285px" style="shape-rendering:geometricPrecision; text-rendering:geometricPrecision; image-rendering:optimizeQuality; fill-rule:evenodd; clip-rule:evenodd" xmlns:xlink="http://www.w3.org/1999/xlink">
<g><path style="opacity:1" fill="#bfa151" d="M 561.5,7.5 C 575.312,6.64205 580.979,12.9754 578.5,26.5C 574.818,26.6653 571.152,26.4986 567.5,26C 570.455,18.4563 568.122,15.9563 560.5,18.5C 557.544,21.1722 557.044,24.1722 559,27.5C 563.853,31.2632 568.52,35.2632 573,39.5C 577.27,50.2525 574.77,59.0859 565.5,66C 558.6,69.535 551.934,69.2017 545.5,65C 541.58,60.0661 540.58,54.5661 542.5,48.5C 545.833,48.5 549.167,48.5 552.5,48.5C 550.614,52.4621 551.281,55.9621 554.5,59C 559.421,60.1244 562.588,58.2911 564,53.5C 564.706,51.0288 564.373,48.6954 563,46.5C 558.667,42.8333 554.333,39.1667 550,35.5C 544.776,22.3207 548.61,12.9873 561.5,7.5 Z"/></g>
<g><path style="opacity:1" fill="#bfa151" d="M 774.5,7.5 C 789.037,6.53747 794.87,13.2041 792,27.5C 790.667,36.1667 789.333,44.8333 788,53.5C 782.66,67.0857 773.16,71.2524 759.5,66C 757.106,64.0478 755.606,61.5478 755,58.5C 755.818,44.2572 758.152,30.2572 762,16.5C 765.236,12.0818 769.402,9.08184 774.5,7.5 Z M 773.5,17.5 C 775.857,17.3367 778.19,17.5034 780.5,18C 781.944,19.126 782.61,20.626 782.5,22.5C 780.882,33.5404 779.049,44.5404 777,55.5C 773.83,58.6071 770.163,59.2737 766,57.5C 766.345,45.7545 767.678,34.0878 770,22.5C 770.697,20.4156 771.864,18.7489 773.5,17.5 Z"/></g>
<g><path style="opacity:1" fill="#bfa151" d="M 954.5,7.5 C 969.037,6.53747 974.87,13.2041 972,27.5C 970.667,36.1667 969.333,44.8333 968,53.5C 962.66,67.0857 953.16,71.2524 939.5,66C 937.106,64.0478 935.606,61.5478 935,58.5C 935.818,44.2572 938.152,30.2572 942,16.5C 945.236,12.0818 949.402,9.08184 954.5,7.5 Z M 953.5,17.5 C 955.857,17.3367 958.19,17.5034 960.5,18C 961.944,19.126 962.61,20.626 962.5,22.5C 960.882,33.5404 959.049,44.5404 957,55.5C 953.83,58.6071 950.163,59.2737 946,57.5C 946.345,45.7545 947.678,34.0878 950,22.5C 950.697,20.4156 951.864,18.7489 953.5,17.5 Z"/></g>
<g><path style="opacity:1" fill="#bfa151" d="M 1189.5,7.5 C 1205.4,7.41577 1211.07,15.0824 1206.5,30.5C 1203.17,30.5 1199.83,30.5 1196.5,30.5C 1196.57,27.8067 1196.9,25.1401 1197.5,22.5C 1197.61,20.626 1196.94,19.126 1195.5,18C 1190.52,16.3553 1187.02,17.8553 1185,22.5C 1183.34,32.6434 1181.84,42.81 1180.5,53C 1180.83,54.5 1181.17,56 1181.5,57.5C 1185.54,59.2829 1189.04,58.6163 1192,55.5C 1193.04,52.2432 1193.54,48.9099 1193.5,45.5C 1197.18,45.3347 1200.85,45.5014 1204.5,46C 1202.38,64.7176 1192.38,71.3843 1174.5,66C 1171.4,63.2078 1169.73,59.7078 1169.5,55.5C 1171.24,43.0806 1173.4,30.7473 1176,18.5C 1178.94,12.7975 1183.44,9.13079 1189.5,7.5 Z"/></g>
<g><path style="opacity:1" fill="#bfa151" d="M 1348.5,7.5 C 1363.04,6.53747 1368.87,13.2041 1366,27.5C 1364.67,36.1667 1363.33,44.8333 1362,53.5C 1356.66,67.0857 1347.16,71.2524 1333.5,66C 1331.11,64.0478 1329.61,61.5478 1329,58.5C 1329.82,44.2572 1332.15,30.2572 1336,16.5C 1339.24,12.0818 1343.4,9.08184 1348.5,7.5 Z M 1347.5,17.5 C 1349.86,17.3367 1352.19,17.5034 1354.5,18C 1355.94,19.126 1356.61,20.626 1356.5,22.5C 1354.88,33.5404 1353.05,44.5404 1351,55.5C 1347.83,58.6071 1344.16,59.2737 1340,57.5C 1340.34,45.7545 1341.68,34.0878 1344,22.5C 1344.7,20.4156 1345.86,18.7489 1347.5,17.5 Z"/></g>
<g><path style="opacity:1" fill="#bfa151" d="M 260.5,8.5 C 264.226,8.17744 267.893,8.51078 271.5,9.5C 268.133,25.3621 265.967,41.3621 265,57.5C 269.341,59.5099 272.675,58.5099 275,54.5C 277.61,39.1723 280.11,23.839 282.5,8.5C 285.833,8.5 289.167,8.5 292.5,8.5C 290.422,25.2994 287.589,41.9661 284,58.5C 277.586,68.0824 269.086,70.5824 258.5,66C 255.4,63.2078 253.733,59.7078 253.5,55.5C 256.161,39.8712 258.494,24.2045 260.5,8.5 Z"/></g>
<g><path style="opacity:1" fill="#bfa151" d="M 313.5,8.5 C 316.572,8.18259 319.572,8.51592 322.5,9.5C 325.21,21.344 328.377,33.0107 332,44.5C 333.944,32.5062 335.777,20.5062 337.5,8.5C 340.5,8.5 343.5,8.5 346.5,8.5C 343.175,28.1152 340.175,47.7819 337.5,67.5C 334.223,67.7839 331.057,67.4505 328,66.5C 324.999,54.4951 321.999,42.4951 319,30.5C 316.932,42.8096 315.099,55.1429 313.5,67.5C 310.5,67.5 307.5,67.5 304.5,67.5C 307.593,47.8477 310.593,28.181 313.5,8.5 Z"/></g>
<g><path style="opacity:1" fill="#bfa151" d="M 367.5,8.5 C 371.182,8.3347 374.848,8.50137 378.5,9C 374.967,27.7265 371.8,46.5598 369,65.5C 365.851,67.3625 362.351,68.0291 358.5,67.5C 361.593,47.8477 364.593,28.181 367.5,8.5 Z"/></g>
<g><path style="opacity:1" fill="#bfa151" d="M 396.5,8.5 C 399.833,8.5 403.167,8.5 406.5,8.5C 406.949,22.1658 407.449,35.8324 408,49.5C 413.006,35.9819 417.506,22.3152 421.5,8.5C 425.182,8.3347 428.848,8.50137 432.5,9C 425.475,27.7402 418.642,46.5736 412,65.5C 407.822,67.3987 403.322,68.0653 398.5,67.5C 397.91,47.8304 397.243,28.1637 396.5,8.5 Z"/></g>
<g><path style="opacity:1" fill="#bfa151" d="M 450.5,8.5 C 459.192,8.16863 467.859,8.50196 476.5,9.5C 475.833,12.1667 475.167,14.8333 474.5,17.5C 469.544,18.4941 464.544,18.8275 459.5,18.5C 458.508,23.4516 457.842,28.4516 457.5,33.5C 461.167,33.5 464.833,33.5 468.5,33.5C 468.167,36.8333 467.833,40.1667 467.5,43.5C 463.5,43.5 459.5,43.5 455.5,43.5C 454.617,48.1317 453.95,52.7984 453.5,57.5C 458.5,57.5 463.5,57.5 468.5,57.5C 467.793,60.7861 467.46,64.1194 467.5,67.5C 458.833,67.5 450.167,67.5 441.5,67.5C 444.593,47.8477 447.593,28.181 450.5,8.5 Z"/></g>
<g><path style="opacity:1" fill="#bfa151" d="M 496.5,8.5 C 503.175,8.33375 509.842,8.50042 516.5,9C 521.235,10.0681 524.402,12.9014 526,17.5C 527.208,27.379 524.375,35.7123 517.5,42.5C 519.021,50.8144 520.354,59.1477 521.5,67.5C 517.833,67.5 514.167,67.5 510.5,67.5C 509.593,59.82 508.593,52.1534 507.5,44.5C 504.921,44.0833 502.754,44.75 501,46.5C 500.064,53.2227 498.897,59.8893 497.5,66.5C 494.232,67.487 490.898,67.8204 487.5,67.5C 490.593,47.8477 493.593,28.181 496.5,8.5 Z M 505.5,18.5 C 515.251,16.7045 518.418,20.3711 515,29.5C 514.426,31.492 513.259,32.992 511.5,34C 508.5,34.6667 505.5,34.6667 502.5,34C 503.765,28.9123 504.765,23.7456 505.5,18.5 Z"/></g>
<g><path style="opacity:1" fill="#bfa151" d="M 602.5,8.5 C 606.182,8.3347 609.848,8.50137 613.5,9C 609.967,27.7265 606.8,46.5598 604,65.5C 600.851,67.3625 597.351,68.0291 593.5,67.5C 596.593,47.8477 599.593,28.181 602.5,8.5 Z"/></g>
<g><path style="opacity:1" fill="#bfa151" d="M 630.5,8.5 C 641.505,8.33349 652.505,8.50015 663.5,9C 662.568,12.0854 661.901,15.2521 661.5,18.5C 657.563,18.2065 653.73,18.5399 650,19.5C 647.545,35.5204 645.045,51.5204 642.5,67.5C 639.167,67.5 635.833,67.5 632.5,67.5C 634.927,51.1794 637.26,34.846 639.5,18.5C 635.833,18.5 632.167,18.5 628.5,18.5C 628.956,15.0945 629.622,11.7611 630.5,8.5 Z"/></g>
<g><path style="opacity:1" fill="#bfa151" d="M 678.5,8.5 C 682.167,8.5 685.833,8.5 689.5,8.5C 690.42,16.8614 691.587,25.1947 693,33.5C 696.667,25.5 700.333,17.5 704,9.5C 707.744,8.37396 711.577,8.20729 715.5,9C 708.617,21.2641 702.117,33.7641 696,46.5C 694.831,53.5131 693.664,60.5131 692.5,67.5C 689.167,67.5 685.833,67.5 682.5,67.5C 683.281,60.8107 684.281,54.144 685.5,47.5C 683.273,34.4673 680.939,21.4673 678.5,8.5 Z"/></g>
<g><path style="opacity:1" fill="#bfa151" d="M 815.5,8.5 C 824.192,8.16863 832.859,8.50196 841.5,9.5C 840.833,12.1667 840.167,14.8333 839.5,17.5C 834.544,18.4941 829.544,18.8275 824.5,18.5C 823.715,23.8747 822.715,29.2081 821.5,34.5C 825.833,35.1667 830.167,35.8333 834.5,36.5C 833.787,38.7759 833.287,41.1093 833,43.5C 829.148,45.2297 824.982,46.0631 820.5,46C 819.123,52.7975 817.789,59.6308 816.5,66.5C 813.232,67.487 809.898,67.8204 806.5,67.5C 809.593,47.8477 812.593,28.181 815.5,8.5 Z"/></g>
<g><path style="opacity:1" fill="#bfa151" d="M 889.5,8.5 C 892.572,8.18259 895.572,8.51592 898.5,9.5C 901.21,21.344 904.377,33.0107 908,44.5C 909.944,32.5062 911.777,20.5062 913.5,8.5C 916.5,8.5 919.5,8.5 922.5,8.5C 919.175,28.1152 916.175,47.7819 913.5,67.5C 910.223,67.7839 907.057,67.4505 904,66.5C 900.999,54.4951 897.999,42.4951 895,30.5C 892.932,42.8096 891.099,55.1429 889.5,67.5C 886.5,67.5 883.5,67.5 880.5,67.5C 883.593,47.8477 886.593,28.181 889.5,8.5 Z"/></g>
<g><path style="opacity:1" fill="#bfa151" d="M 995.5,8.5 C 1002.17,8.33375 1008.84,8.50042 1015.5,9C 1020.24,10.0681 1023.4,12.9014 1025,17.5C 1026.21,27.379 1023.37,35.7123 1016.5,42.5C 1018.02,50.8144 1019.35,59.1477 1020.5,67.5C 1016.83,67.5 1013.17,67.5 1009.5,67.5C 1008.59,59.82 1007.59,52.1534 1006.5,44.5C 1003.92,44.0833 1001.75,44.75 1000,46.5C 999.064,53.2227 997.897,59.8893 996.5,66.5C 993.232,67.487 989.898,67.8204 986.5,67.5C 989.593,47.8477 992.593,28.181 995.5,8.5 Z M 1004.5,18.5 C 1014.25,16.7045 1017.42,20.3711 1014,29.5C 1013.43,31.492 1012.26,32.992 1010.5,34C 1007.5,34.6667 1004.5,34.6667 1001.5,34C 1002.77,28.9123 1003.77,23.7456 1004.5,18.5 Z"/></g>
<g><path style="opacity:1" fill="#bfa151" d="M 1044.5,8.5 C 1055.51,8.33349 1066.51,8.50015 1077.5,9C 1076.57,12.0854 1075.9,15.2521 1075.5,18.5C 1071.56,18.2065 1067.73,18.5399 1064,19.5C 1061.54,35.5204 1059.04,51.5204 1056.5,67.5C 1053.17,67.5 1049.83,67.5 1046.5,67.5C 1048.93,51.1794 1051.26,34.846 1053.5,18.5C 1049.83,18.5 1046.17,18.5 1042.5,18.5C 1042.96,15.0945 1043.62,11.7611 1044.5,8.5 Z"/></g>
<g><path style="opacity:1" fill="#bfa151" d="M 1094.5,8.5 C 1098.18,8.3347 1101.85,8.50137 1105.5,9C 1103.57,17.0353 1102.23,25.202 1101.5,33.5C 1105.55,33.8242 1109.55,33.4909 1113.5,32.5C 1115.05,24.5418 1116.38,16.5418 1117.5,8.5C 1120.83,8.5 1124.17,8.5 1127.5,8.5C 1124.82,28.2181 1121.82,47.8848 1118.5,67.5C 1115.17,67.5 1111.83,67.5 1108.5,67.5C 1109.72,59.5273 1110.72,51.5273 1111.5,43.5C 1107.5,43.5 1103.5,43.5 1099.5,43.5C 1098.35,51.2017 1097.02,58.8684 1095.5,66.5C 1092.23,67.487 1088.9,67.8204 1085.5,67.5C 1088.59,47.8477 1091.59,28.181 1094.5,8.5 Z"/></g>
<g><path style="opacity:1" fill="#bfa151" d="M 1239.5,8.5 C 1243.5,8.5 1247.5,8.5 1251.5,8.5C 1252.36,28.1821 1253.36,47.8487 1254.5,67.5C 1250.83,67.5 1247.17,67.5 1243.5,67.5C 1243.5,63.1667 1243.5,58.8333 1243.5,54.5C 1239.77,54.1774 1236.11,54.5108 1232.5,55.5C 1230.96,59.4612 1229.62,63.4612 1228.5,67.5C 1225.17,67.5 1221.83,67.5 1218.5,67.5C 1224.91,47.6127 1231.91,27.9461 1239.5,8.5 Z M 1242.5,22.5 C 1243.49,29.6476 1243.82,36.9809 1243.5,44.5C 1241.17,44.5 1238.83,44.5 1236.5,44.5C 1238.7,37.2239 1240.7,29.8906 1242.5,22.5 Z"/></g>
<g><path style="opacity:1" fill="#bfa151" d="M 1282.5,8.5 C 1289.17,8.33375 1295.84,8.50042 1302.5,9C 1307.24,10.0681 1310.4,12.9014 1312,17.5C 1313.21,27.379 1310.37,35.7123 1303.5,42.5C 1305.02,50.8144 1306.35,59.1477 1307.5,67.5C 1303.83,67.5 1300.17,67.5 1296.5,67.5C 1295.59,59.82 1294.59,52.1534 1293.5,44.5C 1290.92,44.0833 1288.75,44.75 1287,46.5C 1286.06,53.2227 1284.9,59.8893 1283.5,66.5C 1280.23,67.487 1276.9,67.8204 1273.5,67.5C 1276.59,47.8477 1279.59,28.181 1282.5,8.5 Z M 1291.5,18.5 C 1301.25,16.7045 1304.42,20.3711 1301,29.5C 1300.43,31.492 1299.26,32.992 1297.5,34C 1294.5,34.6667 1291.5,34.6667 1288.5,34C 1289.77,28.9123 1290.77,23.7456 1291.5,18.5 Z"/></g>
<g><path style="opacity:1" fill="#bfa151" d="M 1388.5,8.5 C 1392.18,8.3347 1395.85,8.50137 1399.5,9C 1396.24,25.0355 1393.58,41.2022 1391.5,57.5C 1396.5,57.5 1401.5,57.5 1406.5,57.5C 1405.79,60.7861 1405.46,64.1194 1405.5,67.5C 1396.83,67.5 1388.17,67.5 1379.5,67.5C 1382.59,47.8477 1385.59,28.181 1388.5,8.5 Z"/></g>
<g><path style="opacity:1" fill="#bfa151" d="M 1433.5,8.5 C 1437.18,8.3347 1440.85,8.50137 1444.5,9C 1440.97,27.7265 1437.8,46.5598 1435,65.5C 1431.85,67.3625 1428.35,68.0291 1424.5,67.5C 1427.59,47.8477 1430.59,28.181 1433.5,8.5 Z"/></g>
<g><path style="opacity:1" fill="#bfa151" d="M 1464.5,8.5 C 1467.57,8.18259 1470.57,8.51592 1473.5,9.5C 1476.21,21.344 1479.38,33.0107 1483,44.5C 1484.94,32.5062 1486.78,20.5062 1488.5,8.5C 1491.5,8.5 1494.5,8.5 1497.5,8.5C 1494.18,28.1152 1491.18,47.7819 1488.5,67.5C 1485.22,67.7839 1482.06,67.4505 1479,66.5C 1476,54.4951 1473,42.4951 1470,30.5C 1467.93,42.8096 1466.1,55.1429 1464.5,67.5C 1461.5,67.5 1458.5,67.5 1455.5,67.5C 1458.59,47.8477 1461.59,28.181 1464.5,8.5 Z"/></g>
<g><path style="opacity:1" fill="#bfa151" d="M 1528.5,8.5 C 1532.5,8.5 1536.5,8.5 1540.5,8.5C 1541.36,28.1821 1542.36,47.8487 1543.5,67.5C 1539.83,67.5 1536.17,67.5 1532.5,67.5C 1532.5,63.1667 1532.5,58.8333 1532.5,54.5C 1528.77,54.1774 1525.11,54.5108 1521.5,55.5C 1519.96,59.4612 1518.62,63.4612 1517.5,67.5C 1514.17,67.5 1510.83,67.5 1507.5,67.5C 1513.91,47.6127 1520.91,27.9461 1528.5,8.5 Z M 1531.5,22.5 C 1532.49,29.6476 1532.82,36.9809 1532.5,44.5C 1530.17,44.5 1527.83,44.5 1525.5,44.5C 1527.7,37.2239 1529.7,29.8906 1531.5,22.5 Z"/></g>
<g><path style="opacity:0.982" fill="#00704b" d="M 200.5,15.5 C 200.932,16.7095 201.599,17.7095 202.5,18.5C 205.486,22.817 208.82,26.817 212.5,30.5C 214.697,34.2377 217.364,37.571 220.5,40.5C 221.815,41.667 222.481,43.167 222.5,45C 221.517,48.1118 220.85,51.2785 220.5,54.5C 219.475,57.9736 218.808,61.6403 218.5,65.5C 213.918,83.8563 210.251,102.523 207.5,121.5C 206.691,123.292 206.191,125.292 206,127.5C 203.723,128.117 201.556,128.784 199.5,129.5C 176.035,131.028 152.701,132.028 129.5,132.5C 127.099,131.461 124.765,130.127 122.5,128.5C 124.666,122.005 126,115.338 126.5,108.5C 128.622,102.024 130.288,95.0245 131.5,87.5C 133.118,84.1122 134.118,80.4456 134.5,76.5C 135.87,73.3811 136.87,70.0477 137.5,66.5C 138.612,64.4006 139.279,62.0673 139.5,59.5C 142.75,52.172 144.916,44.5054 146,36.5C 140.174,43.1384 135.007,50.1384 130.5,57.5C 128.453,59.5496 126.786,61.883 125.5,64.5C 123.386,66.8403 121.719,69.5069 120.5,72.5C 119.263,73.9649 118.263,75.6316 117.5,77.5C 109.41,90.3829 103.41,104.383 99.5,119.5C 98.6156,122.023 97.7823,124.69 97,127.5C 94.3927,128.123 91.8927,128.79 89.5,129.5C 88.5,129.5 87.5,129.5 86.5,129.5C 84.2104,128.133 82.5437,128.8 81.5,131.5C 78.6974,139.003 76.0307,146.67 73.5,154.5C 79.7962,155.552 86.1295,156.219 92.5,156.5C 91.5256,169.037 92.1923,181.371 94.5,193.5C 96.2167,206.097 99.55,217.764 104.5,228.5C 105.734,232.628 107.234,236.628 109,240.5C 111.435,243.934 113.435,247.6 115,251.5C 114.739,228.872 115.072,206.205 116,183.5C 116.635,173.712 117.802,164.045 119.5,154.5C 121.179,154.108 122.846,153.608 124.5,153C 136.167,152.833 147.833,152.667 159.5,152.5C 173.205,152.391 186.872,152.891 200.5,154C 201.116,155.4 201.449,156.9 201.5,158.5C 199.438,167.395 198.104,176.395 197.5,185.5C 195.1,198.263 193.434,211.263 192.5,224.5C 191.586,233.872 189.92,243.205 187.5,252.5C 178.037,260.793 168.704,269.293 159.5,278C 157.21,279.777 155.543,281.944 154.5,284.5C 111.833,284.5 69.1667,284.5 26.5,284.5C 24.1667,281.5 21.5,278.833 18.5,276.5C 16.1667,273.5 13.5,270.833 10.5,268.5C 8.88302,265.216 6.54969,262.549 3.5,260.5C 2.89335,258.254 2.56002,255.921 2.5,253.5C 4.22,234.795 6.22,216.129 8.5,197.5C 11.3748,178.998 14.0415,160.331 16.5,141.5C 18.674,131.166 20.3407,120.833 21.5,110.5C 25.5429,87.572 29.8762,64.572 34.5,41.5C 35.2852,39.6264 35.9518,37.6264 36.5,35.5C 38.9095,34.2993 40.9095,32.6326 42.5,30.5C 50.3567,24.7389 58.0233,18.7389 65.5,12.5C 66.9733,11.928 68.3066,11.0946 69.5,10C 74,9.83333 78.5,9.66667 83,9.5C 122.388,10.8702 161.555,12.8702 200.5,15.5 Z"/></g>
<g><path style="opacity:0.004" fill="#00704b" d="M 65.5,12.5 C 64.8333,11.1667 64.8333,11.1667 65.5,12.5 Z"/></g>
<g><path style="opacity:0.004" fill="#00704b" d="M 200.5,14.5 C 201.833,15.1667 201.833,15.1667 200.5,14.5 Z"/></g>
<g><path style="opacity:0.004" fill="#00704b" d="M 202.5,17.5 C 203.833,18.1667 203.833,18.1667 202.5,17.5 Z"/></g>
<g><path style="opacity:0.004" fill="#00704b" d="M 42.5,30.5 C 41.8333,29.1667 41.8333,29.1667 42.5,30.5 Z"/></g>
<g><path style="opacity:0.004" fill="#00704b" d="M 212.5,29.5 C 213.833,30.1667 213.833,30.1667 212.5,29.5 Z"/></g>
<g><path style="opacity:0.004" fill="#00704b" d="M 36.5,35.5 C 35.8333,34.1667 35.8333,34.1667 36.5,35.5 Z"/></g>
<g><path style="opacity:0.004" fill="#00704b" d="M 220.5,39.5 C 221.833,40.1667 221.833,40.1667 220.5,39.5 Z"/></g>
<g><path style="opacity:0.004" fill="#00704b" d="M 34.5,41.5 C 33.8333,40.1667 33.8333,40.1667 34.5,41.5 Z"/></g>
<g><path style="opacity:0.004" fill="#00704b" d="M 220.5,54.5 C 221.833,55.1667 221.833,55.1667 220.5,54.5 Z"/></g>
<g><path style="opacity:0.004" fill="#00704b" d="M 130.5,57.5 C 131.833,58.1667 131.833,58.1667 130.5,57.5 Z"/></g>
<g><path style="opacity:0.004" fill="#00704b" d="M 139.5,59.5 C 138.833,58.1667 138.833,58.1667 139.5,59.5 Z"/></g>
<g><path style="opacity:0.004" fill="#00704b" d="M 125.5,64.5 C 126.833,65.1667 126.833,65.1667 125.5,64.5 Z"/></g>
<g><path style="opacity:0.004" fill="#00704b" d="M 137.5,66.5 C 136.833,65.1667 136.833,65.1667 137.5,66.5 Z"/></g>
<g><path style="opacity:0.004" fill="#00704b" d="M 218.5,65.5 C 219.833,66.1667 219.833,66.1667 218.5,65.5 Z"/></g>
<g><path style="opacity:0.004" fill="#00704b" d="M 120.5,72.5 C 121.833,73.1667 121.833,73.1667 120.5,72.5 Z"/></g>
<g><path style="opacity:0.004" fill="#00704b" d="M 134.5,76.5 C 133.833,75.1667 133.833,75.1667 134.5,76.5 Z"/></g>
<g><path style="opacity:0.004" fill="#00704b" d="M 117.5,77.5 C 118.833,78.1667 118.833,78.1667 117.5,77.5 Z"/></g>
<g><path style="opacity:0.004" fill="#00704b" d="M 131.5,87.5 C 130.833,86.1667 130.833,86.1667 131.5,87.5 Z"/></g>
<g><path style="opacity:1" fill="#00704b" d="M 314.5,98.5 C 336.412,98.2866 358.079,100.453 379.5,105C 376.723,117.055 374.389,129.221 372.5,141.5C 369.167,141.5 365.833,141.5 362.5,141.5C 361.669,124.68 353.002,114.513 336.5,111C 300.52,105.653 277.687,120.486 268,155.5C 262.889,178.278 266.889,199.278 280,218.5C 302.61,242.469 329.443,248.636 360.5,237C 366.664,233.752 372.664,230.252 378.5,226.5C 380.226,228.228 381.559,230.228 382.5,232.5C 366.909,252.209 346.409,261.876 321,261.5C 284.819,261.26 259.152,244.927 244,212.5C 231.765,175.316 239.932,143.483 268.5,117C 282.266,106.803 297.599,100.637 314.5,98.5 Z"/></g>
<g><path style="opacity:1" fill="#00704b" d="M 1042.5,98.5 C 1070.8,95.4342 1095.3,103.434 1116,122.5C 1136.05,148.27 1140.39,176.603 1129,207.5C 1110.42,246.883 1079.26,264.716 1035.5,261C 996.873,255.039 974.039,232.872 967,194.5C 962.843,152.962 979.343,123.129 1016.5,105C 1025.07,101.86 1033.73,99.6934 1042.5,98.5 Z M 1044.5,109.5 C 1070.65,109.996 1088.81,122.329 1099,146.5C 1110.83,178.136 1106.83,207.47 1087,234.5C 1061.81,256.521 1037.48,255.521 1014,231.5C 992.923,201.594 989.923,169.928 1005,136.5C 1013.73,120.93 1026.89,111.93 1044.5,109.5 Z"/></g>
<g><path style="opacity:1" fill="#00704b" d="M 634.5,99.5 C 635.822,99.33 636.989,99.6634 638,100.5C 655.667,146.167 673.333,191.833 691,237.5C 696.105,250.146 704.605,253.312 716.5,247C 718.43,244.742 719.93,242.242 721,239.5C 721.667,199.167 721.667,158.833 721,118.5C 720.654,116.152 719.487,114.319 717.5,113C 712.988,110.996 708.322,109.496 703.5,108.5C 702.526,106.257 702.192,103.924 702.5,101.5C 729.867,101.063 757.2,101.563 784.5,103C 801.438,105.198 813.271,114.032 820,129.5C 823.196,143.909 819.862,156.576 810,167.5C 804.737,172.765 798.904,177.265 792.5,181C 791.941,181.725 791.608,182.558 791.5,183.5C 804.462,205.25 818.795,226.084 834.5,246C 838.38,248.863 842.713,250.03 847.5,249.5C 847.037,252.482 846.704,255.482 846.5,258.5C 832.817,258.833 819.15,258.499 805.5,257.5C 792.875,234.405 778.875,212.238 763.5,191C 758.833,190.333 754.167,190.333 749.5,191C 749,191.5 748.5,192 748,192.5C 747.5,211.164 747.333,229.83 747.5,248.5C 754.167,248.833 760.833,249.167 767.5,249.5C 767.5,252.167 767.5,254.833 767.5,257.5C 729.865,259.025 692.198,259.691 654.5,259.5C 654.335,256.482 654.502,253.482 655,250.5C 657.52,249.793 660.02,248.96 662.5,248C 663.894,247.044 664.561,245.711 664.5,244C 660.592,232.016 656.259,220.183 651.5,208.5C 642.667,208.167 633.833,207.833 625,207.5C 615.404,207.358 605.904,207.858 596.5,209C 591.004,221.991 586.004,235.157 581.5,248.5C 587.884,248.757 594.218,249.423 600.5,250.5C 600.708,252.92 600.374,255.253 599.5,257.5C 565.175,258.607 530.841,259.274 496.5,259.5C 496.5,256.5 496.5,253.5 496.5,250.5C 503.286,250.193 508.453,247.193 512,241.5C 513.449,222.555 513.949,203.555 513.5,184.5C 486.498,184.333 459.498,184.5 432.5,185C 431.667,185.833 430.833,186.667 430,187.5C 429.5,207.831 429.333,228.164 429.5,248.5C 436.167,248.833 442.833,249.167 449.5,249.5C 449.037,252.482 448.704,255.482 448.5,258.5C 428.16,258.517 407.827,258.85 387.5,259.5C 387.5,256.5 387.5,253.5 387.5,250.5C 394.876,249.899 400.043,246.233 403,239.5C 403.667,198.833 403.667,158.167 403,117.5C 402.727,115.671 401.893,114.171 400.5,113C 396.331,111.041 391.998,109.541 387.5,108.5C 386.526,106.257 386.192,103.924 386.5,101.5C 403.511,101.605 420.511,101.272 437.5,100.5C 434.662,106.175 432.495,112.175 431,118.5C 429.634,136.468 429.134,154.468 429.5,172.5C 456.835,172.667 484.169,172.5 511.5,172C 512,171.5 512.5,171 513,170.5C 513.932,152.122 513.599,133.789 512,115.5C 507.89,111.737 503.057,109.404 497.5,108.5C 496.526,106.257 496.192,103.924 496.5,101.5C 511.516,101.75 526.516,101.416 541.5,100.5C 543.712,100.412 545.712,100.912 547.5,102C 543.427,108.214 540.927,115.048 540,122.5C 539.825,163.696 539.325,204.862 538.5,246C 538.645,246.772 538.978,247.439 539.5,248C 546.472,249.165 553.472,249.498 560.5,249C 563.562,247.939 566.062,246.106 568,243.5C 586.976,196.236 606.142,149.07 625.5,102C 628.742,101.594 631.742,100.761 634.5,99.5 Z M 750.5,112.5 C 784.016,111.844 797.183,127.844 790,160.5C 786.199,170.638 779.033,176.804 768.5,179C 761.508,179.5 754.508,179.666 747.5,179.5C 747.333,158.164 747.5,136.831 748,115.5C 749.045,114.627 749.878,113.627 750.5,112.5 Z M 624.5,134.5 C 632.208,154.618 639.541,174.951 646.5,195.5C 631.485,195.833 616.485,195.499 601.5,194.5C 609.175,174.471 616.841,154.471 624.5,134.5 Z"/></g>
<g><path style="opacity:1" fill="#00704b" d="M 1142.5,99.5 C 1145.79,100.161 1149.12,100.661 1152.5,101C 1191.17,101.667 1229.83,101.667 1268.5,101C 1271.56,100.744 1274.56,100.244 1277.5,99.5C 1277.83,100.333 1278.17,101.167 1278.5,102C 1276.1,115.167 1273.77,128.334 1271.5,141.5C 1268.17,141.5 1264.83,141.5 1261.5,141.5C 1263.79,119.622 1253.95,109.955 1232,112.5C 1228.5,112.667 1225,112.833 1221.5,113C 1220.67,113.833 1219.83,114.667 1219,115.5C 1218.5,159.832 1218.33,204.165 1218.5,248.5C 1226.16,248.889 1233.83,249.222 1241.5,249.5C 1240.84,252.455 1240.51,255.455 1240.5,258.5C 1219.16,258.516 1197.83,258.849 1176.5,259.5C 1176.5,256.5 1176.5,253.5 1176.5,250.5C 1183.88,249.899 1189.04,246.233 1192,239.5C 1192.5,197.168 1192.67,154.835 1192.5,112.5C 1167.26,107.264 1151.59,116.93 1145.5,141.5C 1142.17,141.5 1138.83,141.5 1135.5,141.5C 1137.83,127.5 1140.17,113.5 1142.5,99.5 Z"/></g>
<g><path style="opacity:1" fill="#00704b" d="M 1287.5,99.5 C 1290.46,100.137 1293.46,100.637 1296.5,101C 1335.17,101.667 1373.83,101.667 1412.5,101C 1415.89,100.754 1419.22,100.254 1422.5,99.5C 1422.83,100 1423.17,100.5 1423.5,101C 1420.79,114.441 1418.45,127.941 1416.5,141.5C 1413.17,141.5 1409.83,141.5 1406.5,141.5C 1408.35,119.683 1398.35,110.017 1376.5,112.5C 1373.17,112.667 1369.83,112.833 1366.5,113C 1365.67,113.833 1364.83,114.667 1364,115.5C 1363.83,159.208 1363.33,202.875 1362.5,246.5C 1362.71,247.086 1363.04,247.586 1363.5,248C 1370.81,248.832 1378.15,249.332 1385.5,249.5C 1385.78,252.448 1385.44,255.281 1384.5,258C 1363.5,258.5 1342.5,259 1321.5,259.5C 1321.5,256.5 1321.5,253.5 1321.5,250.5C 1329.42,249.968 1334.58,245.968 1337,238.5C 1337.5,196.501 1337.67,154.501 1337.5,112.5C 1312.91,107.368 1297.08,116.701 1290,140.5C 1286.94,141.451 1283.78,141.784 1280.5,141.5C 1282.58,127.458 1284.91,113.458 1287.5,99.5 Z"/></g>
<g><path style="opacity:1" fill="#00704b" d="M 886.5,100.5 C 890.833,100.5 895.167,100.5 899.5,100.5C 896.644,106.903 894.477,113.569 893,120.5C 892.794,162.847 892.294,205.18 891.5,247.5C 903.171,247.667 914.838,247.5 926.5,247C 934.631,246.518 941.131,243.018 946,236.5C 949.961,229.413 953.794,222.246 957.5,215C 960.833,214.333 964.167,214.333 967.5,215C 963.778,229.389 960.445,243.889 957.5,258.5C 921.826,258.302 886.159,258.635 850.5,259.5C 850.5,256.5 850.5,253.5 850.5,250.5C 856.868,249.903 861.701,246.903 865,241.5C 865.667,199.833 865.667,158.167 865,116.5C 864.535,115.069 863.701,113.903 862.5,113C 858.331,111.041 853.998,109.541 849.5,108.5C 848.526,106.257 848.192,103.924 848.5,101.5C 861.344,101.829 874.011,101.495 886.5,100.5 Z"/></g>
<g><path style="opacity:1" fill="#00704b" d="M 1538.5,100.5 C 1541.5,100.5 1544.5,100.5 1547.5,100.5C 1544.84,114.11 1542.51,127.776 1540.5,141.5C 1537.17,141.5 1533.83,141.5 1530.5,141.5C 1531.26,133.815 1530.1,126.481 1527,119.5C 1522.39,115.184 1516.89,113.017 1510.5,113C 1499.5,112.333 1488.5,112.333 1477.5,113C 1476.67,113.833 1475.83,114.667 1475,115.5C 1474.5,134.83 1474.33,154.164 1474.5,173.5C 1488.17,173.5 1501.83,173.5 1515.5,173.5C 1516.26,168.85 1516.93,164.183 1517.5,159.5C 1520.79,158.793 1524.12,158.46 1527.5,158.5C 1527.5,172.833 1527.5,187.167 1527.5,201.5C 1523.5,201.5 1519.5,201.5 1515.5,201.5C 1515.5,195.833 1515.5,190.167 1515.5,184.5C 1502.5,184.333 1489.5,184.5 1476.5,185C 1476,185.5 1475.5,186 1475,186.5C 1474.83,206.74 1474.33,226.906 1473.5,247C 1489.54,247.885 1505.54,247.552 1521.5,246C 1525.79,244.604 1529.29,242.104 1532,238.5C 1536.01,232.488 1539.51,226.155 1542.5,219.5C 1545.78,218.343 1549.12,218.176 1552.5,219C 1549.18,232.073 1546.18,245.24 1543.5,258.5C 1506.49,258.304 1469.49,258.638 1432.5,259.5C 1432.5,256.5 1432.5,253.5 1432.5,250.5C 1440.09,250.055 1445.26,246.389 1448,239.5C 1448.67,199.167 1448.67,158.833 1448,118.5C 1447.65,116.152 1446.49,114.319 1444.5,113C 1439.99,110.996 1435.32,109.496 1430.5,108.5C 1429.53,106.257 1429.19,103.924 1429.5,101.5C 1466,101.832 1502.34,101.498 1538.5,100.5 Z"/></g>
<g><path style="opacity:0.004" fill="#00704b" d="M 126.5,108.5 C 125.833,107.167 125.833,107.167 126.5,108.5 Z"/></g>
<g><path style="opacity:0.004" fill="#00704b" d="M 21.5,110.5 C 20.8333,109.167 20.8333,109.167 21.5,110.5 Z"/></g>
<g><path style="opacity:0.004" fill="#00704b" d="M 99.5,119.5 C 100.833,120.167 100.833,120.167 99.5,119.5 Z"/></g>
<g><path style="opacity:0.004" fill="#00704b" d="M 207.5,121.5 C 208.833,122.167 208.833,122.167 207.5,121.5 Z"/></g>
<g><path style="opacity:0.004" fill="#00704b" d="M 86.5,129.5 C 85.8333,130.167 85.8333,130.167 86.5,129.5 Z"/></g>
<g><path style="opacity:0.004" fill="#00704b" d="M 89.5,129.5 C 90.8333,130.167 90.8333,130.167 89.5,129.5 Z"/></g>
<g><path style="opacity:0.004" fill="#00704b" d="M 199.5,129.5 C 200.833,130.167 200.833,130.167 199.5,129.5 Z"/></g>
<g><path style="opacity:0.004" fill="#00704b" d="M 81.5,131.5 C 82.8333,132.167 82.8333,132.167 81.5,131.5 Z"/></g>
<g><path style="opacity:0.004" fill="#00704b" d="M 129.5,132.5 C 128.833,133.167 128.833,133.167 129.5,132.5 Z"/></g>
<g><path style="opacity:0.004" fill="#00704b" d="M 16.5,141.5 C 15.8333,140.167 15.8333,140.167 16.5,141.5 Z"/></g>
<g><path style="opacity:0.004" fill="#00704b" d="M 119.5,154.5 C 118.833,153.167 118.833,153.167 119.5,154.5 Z"/></g>
<g><path style="opacity:0.004" fill="#00704b" d="M 197.5,185.5 C 198.833,186.167 198.833,186.167 197.5,185.5 Z"/></g>
<g><path style="opacity:0.004" fill="#00704b" d="M 94.5,192.5 C 95.8333,193.167 95.8333,193.167 94.5,192.5 Z"/></g>
<g><path style="opacity:0.004" fill="#00704b" d="M 8.5,197.5 C 7.83333,196.167 7.83333,196.167 8.5,197.5 Z"/></g>
<g><path style="opacity:0.004" fill="#00704b" d="M 192.5,224.5 C 193.833,225.167 193.833,225.167 192.5,224.5 Z"/></g>
<g><path style="opacity:0.004" fill="#00704b" d="M 104.5,227.5 C 105.833,228.167 105.833,228.167 104.5,227.5 Z"/></g>
<g><path style="opacity:0.004" fill="#00704b" d="M 187.5,252.5 C 188.833,253.167 188.833,253.167 187.5,252.5 Z"/></g>
<g><path style="opacity:0.004" fill="#00704b" d="M 3.5,260.5 C 2.83333,261.167 2.83333,261.167 3.5,260.5 Z"/></g>
<g><path style="opacity:0.004" fill="#00704b" d="M 10.5,268.5 C 9.83333,269.167 9.83333,269.167 10.5,268.5 Z"/></g>
<g><path style="opacity:0.004" fill="#00704b" d="M 18.5,276.5 C 17.8333,277.167 17.8333,277.167 18.5,276.5 Z"/></g>
</svg>
